<svg width="191" height="60" viewBox="0 0 191 60" fill="none" xmlns="http://www.w3.org/2000/svg">
<path d="M121 0H161C177.569 0 191 13.4315 191 30C191 46.5685 177.569 60 161 60H121C121 60 150 58 150 30C150 2 121 0 121 0Z" fill="white"/>
<path d="M174.531 29.4688L169.531 24.4688C169.177 24.1771 168.823 24.1771 168.469 24.4688C168.177 24.8229 168.177 25.1771 168.469 25.5312L172.938 30L168.469 34.4688C168.177 34.8229 168.177 35.1771 168.469 35.5312C168.823 35.8229 169.177 35.8229 169.531 35.5312L174.531 30.5312C174.823 30.1771 174.823 29.8229 174.531 29.4688Z" fill="#0D0D0C"/>
<rect x="1" y="1" width="149" height="58" rx="29" stroke="white" stroke-width="2"/>
<path d="M36.248 24.8H38.184V36H36.248V24.8ZM42.344 24.8H44.616L39.896 30.048L44.856 36H42.536L37.608 30.096L42.344 24.8ZM50.7463 31.52C50.7463 30.976 50.6343 30.5653 50.4103 30.288C50.1863 30.0107 49.8396 29.872 49.3703 29.872C49.0503 29.872 48.7676 29.9413 48.5223 30.08C48.2769 30.208 48.0849 30.4 47.9463 30.656C47.8076 30.9013 47.7383 31.1893 47.7383 31.52V36H46.0103V28.64H47.7383V29.776C47.9729 29.3387 48.2716 29.0133 48.6343 28.8C49.0076 28.5867 49.4503 28.48 49.9623 28.48C50.7943 28.48 51.4289 28.736 51.8663 29.248C52.3036 29.7493 52.5223 30.4427 52.5223 31.328V36H50.7463V31.52ZM54.169 32.32C54.169 31.5627 54.3397 30.896 54.681 30.32C55.033 29.744 55.5077 29.296 56.105 28.976C56.7023 28.6453 57.3797 28.48 58.137 28.48C58.8943 28.48 59.5663 28.6453 60.153 28.976C60.7503 29.296 61.225 29.744 61.577 30.32C61.929 30.896 62.105 31.5627 62.105 32.32C62.105 33.0667 61.929 33.7333 61.577 34.32C61.225 34.896 60.7503 35.3493 60.153 35.68C59.5663 36 58.8943 36.16 58.137 36.16C57.3797 36.16 56.7023 36 56.105 35.68C55.5077 35.3493 55.033 34.896 54.681 34.32C54.3397 33.7333 54.169 33.0667 54.169 32.32ZM55.945 32.32C55.945 32.7787 56.041 33.184 56.233 33.536C56.425 33.8773 56.6863 34.1493 57.017 34.352C57.3477 34.544 57.721 34.64 58.137 34.64C58.5423 34.64 58.9103 34.544 59.241 34.352C59.5823 34.1493 59.849 33.8773 60.041 33.536C60.233 33.184 60.329 32.7787 60.329 32.32C60.329 31.8613 60.233 31.456 60.041 31.104C59.849 30.752 59.5823 30.48 59.241 30.288C58.9103 30.096 58.5423 30 58.137 30C57.721 30 57.3477 30.096 57.017 30.288C56.6863 30.48 56.425 30.752 56.233 31.104C56.041 31.456 55.945 31.8613 55.945 32.32ZM62.4062 28.64H64.2783L66.0063 33.024L68.0383 28.08L70.1983 33.04L71.9263 28.64H73.7983L70.3583 36.528L68.0543 31.552L65.8463 36.528L62.4062 28.64ZM81.9218 29.184L81.1538 36H79.2018L80.7378 24.24L85.3298 31.84L89.9378 24.24L91.4738 36H89.5218L88.7378 29.184L85.3298 34.96L81.9218 29.184ZM92.6065 32.32C92.6065 31.5627 92.7772 30.896 93.1185 30.32C93.4705 29.744 93.9452 29.296 94.5425 28.976C95.1398 28.6453 95.8172 28.48 96.5745 28.48C97.3318 28.48 98.0038 28.6453 98.5905 28.976C99.1878 29.296 99.6625 29.744 100.015 30.32C100.367 30.896 100.543 31.5627 100.543 32.32C100.543 33.0667 100.367 33.7333 100.015 34.32C99.6625 34.896 99.1878 35.3493 98.5905 35.68C98.0038 36 97.3318 36.16 96.5745 36.16C95.8172 36.16 95.1398 36 94.5425 35.68C93.9452 35.3493 93.4705 34.896 93.1185 34.32C92.7772 33.7333 92.6065 33.0667 92.6065 32.32ZM94.3825 32.32C94.3825 32.7787 94.4785 33.184 94.6705 33.536C94.8625 33.8773 95.1238 34.1493 95.4545 34.352C95.7852 34.544 96.1585 34.64 96.5745 34.64C96.9798 34.64 97.3478 34.544 97.6785 34.352C98.0198 34.1493 98.2865 33.8773 98.4785 33.536C98.6705 33.184 98.7665 32.7787 98.7665 32.32C98.7665 31.8613 98.6705 31.456 98.4785 31.104C98.2865 30.752 98.0198 30.48 97.6785 30.288C97.3478 30.096 96.9798 30 96.5745 30C96.1585 30 95.7852 30.096 95.4545 30.288C95.1238 30.48 94.8625 30.752 94.6705 31.104C94.4785 31.456 94.3825 31.8613 94.3825 32.32ZM103.894 28.64V36H102.182V28.64H103.894ZM106.086 30.48C105.926 30.352 105.777 30.256 105.638 30.192C105.499 30.128 105.323 30.096 105.11 30.096C104.822 30.096 104.587 30.1707 104.406 30.32C104.225 30.4693 104.091 30.6773 104.006 30.944C103.931 31.2 103.894 31.504 103.894 31.856L103.318 31.52C103.318 30.9333 103.425 30.416 103.638 29.968C103.862 29.5093 104.145 29.1467 104.486 28.88C104.838 28.6133 105.201 28.48 105.574 28.48C105.841 28.48 106.091 28.5227 106.326 28.608C106.561 28.6827 106.758 28.8213 106.918 29.024L106.086 30.48ZM111.07 36.16C110.323 36.16 109.662 36 109.086 35.68C108.52 35.36 108.083 34.912 107.774 34.336C107.464 33.76 107.31 33.088 107.31 32.32C107.31 31.5413 107.464 30.864 107.774 30.288C108.094 29.712 108.542 29.2693 109.118 28.96C109.694 28.64 110.371 28.48 111.15 28.48C111.928 28.48 112.59 28.6293 113.134 28.928C113.678 29.2267 114.094 29.6587 114.382 30.224C114.68 30.7787 114.83 31.4507 114.83 32.24C114.83 32.3253 114.824 32.416 114.814 32.512C114.814 32.608 114.808 32.6773 114.798 32.72H108.334V31.536H113.326L112.798 32.272C112.83 32.208 112.862 32.1227 112.894 32.016C112.936 31.8987 112.958 31.8027 112.958 31.728C112.958 31.3333 112.878 30.992 112.718 30.704C112.568 30.416 112.355 30.192 112.078 30.032C111.811 29.872 111.496 29.792 111.134 29.792C110.696 29.792 110.323 29.888 110.014 30.08C109.704 30.272 109.47 30.5493 109.31 30.912C109.15 31.2747 109.064 31.7227 109.054 32.256C109.054 32.7893 109.134 33.2427 109.294 33.616C109.454 33.9787 109.688 34.256 109.998 34.448C110.318 34.64 110.702 34.736 111.15 34.736C111.619 34.736 112.03 34.64 112.382 34.448C112.734 34.256 113.027 33.9627 113.262 33.568L114.75 34.176C114.366 34.8373 113.87 35.3333 113.262 35.664C112.654 35.9947 111.923 36.16 111.07 36.16Z" fill="white"/>
</svg>
