<svg width="60" height="36" viewBox="0 0 60 36" fill="none" xmlns="http://www.w3.org/2000/svg">
<path d="M33 33.701C33.8394 30.4153 34.912 26.8479 36.2176 22.999C37.5233 19.2439 38.9223 15.4888 40.4145 11.7337C41.9067 7.88469 43.4456 4.22347 45.0311 0.75H60C59.0674 4.5051 58.1813 8.44796 57.342 12.5786C56.5026 16.6153 55.7098 20.6051 54.9637 24.5479C54.2176 28.4908 53.6114 32.0581 53.145 35.25H33.9793L33 33.701Z" fill="#FF5C01"/>
<path d="M0 33.701C0.839373 30.4153 1.91191 26.8479 3.21761 22.999C4.52331 19.2439 5.92227 15.4888 7.41449 11.7337C8.90671 7.88469 10.4456 4.22347 12.0311 0.75H27C26.0673 4.5051 25.1813 8.44796 24.3419 12.5786C23.5026 16.6153 22.7098 20.6051 21.9637 24.5479C21.2176 28.4908 20.6114 32.0581 20.145 35.25H0.979265L0 33.701Z" fill="#FF5C01"/>
</svg>
