<?xml version="1.0" encoding="UTF-8" standalone="no"?><svg xmlns="http://www.w3.org/2000/svg" xmlns:xlink="http://www.w3.org/1999/xlink" viewBox="0 0 125.4 143.78"><path d="M63.69 143.78c28.87 0 52.26-2.49 52.26-5.56s-23.41-5.56-52.28-5.56-52.26 2.49-52.26 5.56 23.41 5.56 52.28 5.56z"/><path d="M111.39 15.75c-.36-4.14-2.32-7.88-5.5-10.56A15.458 15.458 0 0 0 94.57 1.6L15.94 22.27C8.9 24.13.69 28.57 1.61 39.11l5.82 66.97c.36 4.14 2.32 7.88 5.5 10.56 3.17 2.66 7.19 3.93 11.32 3.59l6.15-1.62c.22-.06.45-.02.64.11a.79.79 0 0 1 .32.57l.96 12.72c.16 1.84.9 2.23 4.02 3.11l.15.06 4.41 1.2 7.05-22.69a.75.75 0 0 1 .55-.51l54.39-13.64s.08-.02.12-.02a15.56 15.56 0 0 0 10.6-5.48c2.68-3.18 3.96-7.2 3.6-11.34l-5.82-66.97z" fill="#845629"/><path d="m118.75 82.57-5.82-66.97c-.39-4.53-2.54-8.66-6.05-11.59S98.94-.33 94.38.06c-.05 0-.08.02-.13.02L15.54 20.79C4.78 23.64-.71 30.2.07 39.25l5.82 66.98c.39 4.53 2.54 8.66 6.05 11.59a17.12 17.12 0 0 0 12.51 3.94c.05 0 .09-.02.13-.02l5.32-1.4.89 11.81c.26 3.02 2.22 3.63 4.94 4.41.05.03.11.05.17.07l5.31 1.45c.06.02.13.03.2.03l.02-.02a.77.77 0 0 0 .74-.54l7.15-22.99 53.91-13.52c4.53-.41 8.65-2.54 11.58-6.01 2.95-3.49 4.35-7.91 3.95-12.46zm-15.87 16.99L48.49 113.2c-.26.06-.47.26-.55.51l-7.05 22.69-4.41-1.2c-.05-.02-.1-.05-.15-.06-3.12-.88-3.85-1.27-4.02-3.11l-.96-12.72a.79.79 0 0 0-.32-.57.728.728 0 0 0-.64-.11l-6.15 1.62c-4.13.34-8.15-.93-11.32-3.59a15.456 15.456 0 0 1-5.5-10.56L1.6 39.11C.68 28.57 8.89 24.13 15.93 22.27L94.58 1.6c4.13-.34 8.15.93 11.32 3.59 3.18 2.67 5.14 6.42 5.5 10.56l5.82 66.97c.36 4.14-.92 8.16-3.6 11.34a15.56 15.56 0 0 1-10.6 5.48c-.05 0-.08.02-.12.02z"/><path d="M117.98 17.15c-.36-4.14-2.32-7.88-5.5-10.56A15.458 15.458 0 0 0 101.16 3L22.52 23.7C11.29 26.89 7.4 31.45 8.19 40.54l5.82 66.97c.74 8.51 8.27 14.85 16.82 14.15l7.03-1.85 1.19 13.7c.12 1.33.93 2.41 2.18 2.88s2.58.22 3.55-.68l26.86-24.79 37.95-9.97a15.56 15.56 0 0 0 10.6-5.48c2.69-3.18 3.96-7.2 3.6-11.34l-5.82-66.97z" fill="#ffdc8d"/><path d="m125.34 84-5.82-66.97c-.39-4.53-2.54-8.66-6.05-11.59s-7.95-4.34-12.51-3.94h-.07L22.1 22.22c-11.98 3.4-16.31 8.57-15.46 18.45l5.82 66.97c.82 9.38 9.13 16.36 18.56 15.54l5.46-1.42 1.03 11.88c.17 1.9 1.38 3.5 3.15 4.18a4.95 4.95 0 0 0 1.8.34h.02a4.89 4.89 0 0 0 3.35-1.32l26.59-24.53 37.38-9.84c4.54-.41 8.65-2.54 11.58-6.01 2.95-3.49 4.35-7.91 3.95-12.46zm-84.11 52.38c-1.25-.47-2.06-1.55-2.18-2.88l-1.19-13.7-7.03 1.85c-8.55.7-16.09-5.64-16.82-14.15L8.19 40.53c-.78-9.09 3.1-13.65 14.33-16.84l78.64-20.68c4.13-.34 8.15.93 11.32 3.59 3.18 2.67 5.14 6.42 5.5 10.56l5.82 66.97c.36 4.14-.91 8.16-3.6 11.34a15.56 15.56 0 0 1-10.6 5.48l-37.95 9.97-26.86 24.79c-.98.9-2.31 1.16-3.55.68z"/><path d="M37.86 119.8h.01-.01zm36.55-26.14L69 94.99l1.73-2.65c2.51-3.81 3.14-5.52 2.93-7.49-.33-3.14-2.27-4.59-5.87-3.71s-5.42 3.45-5.35 7.24v.25l3.83-.94v-.25c-.03-1.79.44-2.73 1.55-3 1.05-.26 1.74.3 1.87 1.56.17 1.61-.45 2.96-2.4 5.86l-4.1 6.11.2 1.9 11.39-2.8-.35-3.41h-.02zm14.78-3.99-.35-3.41-1.79.44-1.01-9.64-4.18 1.03-5.45 12.26.25 2.41 6.9-1.69.39 3.75 3.83-.94-.39-3.75 1.79-.44zm-8.94-1.29 1.8-4.07c.19-.42.4-1 .63-1.68l.52 5.02-2.96.73zm10.06 5.61 2.24-.55 3.44-19.58-2.24.55-3.44 19.58zm18.82-22.6-11.94 2.93.35 3.41 7.41-1.82-5.08 14.99 4.19-1.03 5.32-16.05.01.01-.26-2.44zM13.32 25.85l-6.27-1.09a.766.766 0 0 0-.89.62.77.77 0 0 0 .62.89l6.27 1.09h.13c.36 0 .69-.25.75-.63a.77.77 0 0 0-.62-.89zM6.54 38.76a.77.77 0 0 0 .75-.63c.08-.41-.2-.82-.62-.9L.9 36.14c-.42-.08-.82.2-.9.61s.2.82.62.9l5.77 1.09c.05.02.1.02.15.02zm-.91.43-3.56-.68 1.4 14.96 3.45.1-1.29-14.38zm1.44 15.42-3.51-.07.28 2.98 3.5.1-.27-3.01z"/><use xlink:href="#a"/><use xlink:href="#a" x="-.6" y="-7.29"/><path d="m11.13 106.55-2.78-.35a.342.342 0 0 0-.39.38l.06.62a.35.35 0 0 0 .3.31l2.77.36a.35.35 0 0 0 .39-.38l-.05-.63a.35.35 0 0 0-.3-.31zm24.39 17.07a.795.795 0 0 0-.98-.69l-1.58.41c-.35.08-.58.41-.56.77l.63 7.91s.12 1.21 1.61 1.7l.72.28c.52.2 1.08-.22 1.02-.77l-.86-9.61z"/><path d="M40.99 127.58c-.58 0-1.08-.44-1.15-1.03l-.48-4.57a1.157 1.157 0 0 1 2.3-.23l.48 4.57c.06.63-.39 1.19-1.03 1.26h-.12zM17.06 80.96l.62-37.86c-.69-7.54 1.98-10.38 10.9-12.91l56.66-17.94c1.19-.41.65-2.18-.56-1.86L22.83 27.27c-8.92 2.54-11.47 6.35-10.9 12.91l3.54 40.77c.08.96 1.48.97 1.58.02z" fill="#fff"/><path d="M29.26 49.67c-1.7 0-3.26-1.13-3.72-2.85-.55-2.05.68-4.14 2.74-4.68l68.75-18.08c2.06-.54 4.16.68 4.7 2.73.55 2.05-.69 4.14-2.74 4.68L30.24 49.55c-.33.08-.66.13-.98.13Z" fill="#e0b958"/><path d="M101.89 27.17c-11.01.92-23.47 3.79-36.17 8.68-7.33 2.83-14.15 6.11-20.29 9.66L99.08 31.4c1.91-.5 3.08-2.34 2.81-4.24z" fill="#ffdc8d"/><path d="M28.98 46.24a1.16 1.16 0 0 1-1.12-.86 1.15 1.15 0 0 1 .82-1.4l23.28-6.13c.62-.16 1.25.21 1.41.82a1.15 1.15 0 0 1-.82 1.4L29.27 46.2a1.55 1.55 0 0 1-.29.04zm28-7.46a1.15 1.15 0 0 1-1.12-.87 1.15 1.15 0 0 1 .83-1.4l1.37-.35c.62-.16 1.25.21 1.41.83a1.15 1.15 0 0 1-.83 1.4l-1.37.35c-.1.02-.19.04-.29.04zm5.28-1.32c-.52 0-.98-.34-1.12-.86a1.15 1.15 0 0 1 .83-1.4l1.37-.35c.62-.16 1.25.21 1.41.83s-.21 1.24-.83 1.4l-1.37.35c-.1.02-.19.04-.29.04z" fill="#fff"/><path d="M29.26 50.44c-2.09 0-3.92-1.41-4.46-3.42-.65-2.45.82-4.97 3.28-5.62l68.75-18.08c1.19-.31 2.44-.15 3.5.47s1.82 1.61 2.14 2.8c.65 2.45-.82 4.97-3.29 5.62L30.43 50.28c-.38.1-.78.15-1.18.15zm68.76-25.75c-.26 0-.53.03-.79.1L28.48 42.87a3.07 3.07 0 0 0-2.19 3.75 3.073 3.073 0 0 0 2.97 2.28 2.93 2.93 0 0 0 .78-.1l68.74-18.08a3.07 3.07 0 0 0 2.19-3.75 3.08 3.08 0 0 0-1.42-1.87 3.05 3.05 0 0 0-1.55-.41z"/><path d="M30.68 63.68c-1.7 0-3.26-1.13-3.72-2.85-.55-2.05.68-4.14 2.74-4.68l68.75-18.08c2.06-.54 4.16.68 4.7 2.73.55 2.05-.69 4.14-2.74 4.68L31.66 63.56c-.33.08-.66.13-.98.13Z" fill="#e0b958"/><path d="M103.31 41.18c-11.01.92-23.47 3.79-36.17 8.68-7.33 2.83-14.15 6.11-20.29 9.66l53.65-14.11c1.91-.5 3.08-2.34 2.81-4.24Z" fill="#ffdc8d"/><path d="M30.4 60.25a1.16 1.16 0 0 1-1.12-.86 1.15 1.15 0 0 1 .82-1.4l23.28-6.13c.62-.16 1.25.21 1.41.82a1.15 1.15 0 0 1-.82 1.4l-23.28 6.13a1.55 1.55 0 0 1-.29.04zm28-7.46a1.15 1.15 0 0 1-1.12-.87 1.15 1.15 0 0 1 .83-1.4l1.37-.35c.62-.16 1.25.21 1.41.83a1.15 1.15 0 0 1-.83 1.4l-1.37.35c-.1.02-.19.04-.29.04z" fill="#fff"/><path d="M30.68 64.45c-2.09 0-3.92-1.41-4.46-3.42-.65-2.45.82-4.97 3.28-5.62l68.75-18.08c1.19-.31 2.44-.15 3.5.47s1.82 1.61 2.14 2.8c.65 2.45-.82 4.97-3.29 5.62L31.85 64.3c-.38.1-.78.15-1.18.15zM99.44 38.7c-.26 0-.53.03-.79.1L29.9 56.88a3.07 3.07 0 0 0-2.19 3.75 3.073 3.073 0 0 0 2.97 2.28 2.93 2.93 0 0 0 .78-.1l68.74-18.08a3.07 3.07 0 0 0 2.19-3.75 3.08 3.08 0 0 0-1.42-1.87 3.05 3.05 0 0 0-1.55-.41z"/><path d="M32.03 77.69c-1.7 0-3.26-1.13-3.72-2.85-.55-2.05.68-4.14 2.74-4.68L99.8 52.08c2.06-.54 4.16.68 4.7 2.73.55 2.05-.69 4.14-2.74 4.68L33.01 77.57a4.19 4.19 0 0 1-.98.13z" fill="#e0b958"/><path d="M104.66 55.19c-11.01.92-23.47 3.79-36.17 8.68-7.33 2.83-14.15 6.11-20.29 9.66l53.65-14.11c1.91-.5 3.08-2.34 2.81-4.24Z" fill="#ffdc8d"/><path d="M31.75 74.26c-.51 0-.98-.34-1.12-.86-.16-.61.21-1.24.82-1.4l16.02-4.17c.62-.16 1.25.21 1.41.82.16.61-.21 1.24-.82 1.4l-16.02 4.17c-.1.02-.2.04-.29.04Z" fill="#fff"/><path d="M32.03 78.46c-2.09 0-3.92-1.41-4.46-3.42-.65-2.45.82-4.97 3.28-5.62L99.6 51.34c1.19-.31 2.44-.15 3.5.47s1.82 1.61 2.14 2.8c.65 2.45-.82 4.97-3.29 5.62L33.2 78.31c-.38.1-.78.15-1.18.15zm68.76-25.75c-.26 0-.53.03-.79.1L31.26 70.89a3.07 3.07 0 0 0-2.19 3.75 3.073 3.073 0 0 0 2.97 2.28 2.93 2.93 0 0 0 .78-.1l68.74-18.08a3.07 3.07 0 0 0 2.19-3.75 3.08 3.08 0 0 0-1.42-1.87 3.05 3.05 0 0 0-1.55-.41z"/><path d="m123.8 84.13-5.76-66.36c-.65-.13-1.41.21-1.5 1.06l-.97 58.9c1.09 11.73-3.08 16.14-16.96 20.09l-73.44 23.25c1.79.53 3.7.75 5.67.59l7.03-1.85.13 1.53 31.74-8.66 1.91-1.77 37.95-9.97a15.56 15.56 0 0 0 10.6-5.48c2.69-3.18 3.96-7.2 3.6-11.34z" fill="#e0b958"/><defs><path d="m8.17 104.76 2.72.35a.35.35 0 0 0 .39-.38l-.48-5.69a.35.35 0 0 0-.28-.31l-2.79-.57a.36.36 0 0 0-.42.38l.55 5.9a.35.35 0 0 0 .3.31z" id="a"/></defs></svg>