<?xml version="1.0" encoding="UTF-8" standalone="no"?><svg xmlns="http://www.w3.org/2000/svg" viewBox="0 0 125 154.14"><path d="m34.23 10.32 1.86-7.91-8.21 3.92s-.29 19.75-18.73 20.65c15.83-.36 22.39-9.6 25.08-16.66Z" fill="#845629"/><path d="M9.15 27.69a.705.705 0 0 1-.03-1.41c17.54-.86 18.04-19.17 18.05-19.95a.7.7 0 0 1 .41-.63l8.21-3.92c.25-.12.54-.09.76.09.21.17.31.45.25.72l-1.86 7.91s-.01.06-.03.09C32 18.2 25.19 27.35 9.18 27.7h-.02ZM28.57 6.78C28.43 9.02 27.35 19 19.7 24.33c7.87-3 11.84-9 13.85-14.23l1.51-6.42-6.48 3.09Z"/><path d="M0 0h125v154H0z" fill="none"/><path d="M62.91 154.14c26.33 0 47.67-2.27 47.66-5.07 0-2.8-21.36-5.07-47.68-5.07s-47.67 2.27-47.66 5.07c0 2.8 21.36 5.07 47.68 5.07Z"/><path d="M1.43 30.91c.11 49.82 20.08 78.87 36.84 94.48 17.57 16.36 35.37 21.78 36.78 22.19h8.37L7.93 27.54s-.03.03-.05.04l-6.46 3.33Z" fill="#845629"/><path d="M83.87 147.58h-8.82c-1.41-.4-19.21-5.82-36.78-22.19C21.51 109.78 1.54 80.73 1.43 30.91l6.46-3.33s.03-.03.05-.04c.31-.2.43-.59.26-.92a.726.726 0 0 0-.96-.31L.39 29.84a.71.71 0 0 0-.39.63c0 50.63 20.31 80.16 37.34 96 18.47 17.18 37.23 22.45 37.42 22.5.06.02.12.03.19.03h8.92c.39 0 .71-.32.71-.71s-.32-.71-.71-.71Z"/><path d="M119.67 30.07c-3.3-.34-20.35-3.13-25.7-24.28-3.6-.9-30.53-7.23-57.28-2.82-.42 3.76-3.87 24.65-28.46 24.69-.11 4.01-.29 25.26 7.64 49.1 8.06 24.2 26.37 56.08 67.88 70.74 2.03-1.36 14.56-10.2 24.95-27.59 10.37-17.35 20.66-47 10.97-89.84Z" fill="#e0b958"/><path d="M7.52 27.14s-.16 2.92.03 7.88c1.58.27 3.21.41 4.87.41 16.04 0 29.05-12.97 29.05-28.97 0-1.58-.13-3.13-.38-4.65-1.69.21-3.39.45-5.09.74 0 0-1.3 24.98-28.49 24.59Z" fill="#ffdc8d"/><path d="M34.87 7.71c6.27.94 12.97 1.46 19.95 1.46 13.55 0 26.08-1.93 36.32-5.21-8.51-1.86-31.81-6.02-55.13-2.05 0 0-.13 2.45-1.14 5.8Z" fill="#ffdc8d"/><path d="M35.73 4.71c3.46.41 7.11.64 10.89.64 9.52 0 18.23-1.41 24.97-3.74C61.3.64 48.66.4 36.01 2.55c0 0-.05.82-.27 2.16Z" fill="#fff"/><path d="M36 2.55S34.7 27.53 7.51 27.14c0 0-.04.68-.05 1.91 2.2.53 4.49.82 6.85.82 15.82 0 28.67-12.61 29.03-28.3-2.44.25-4.89.57-7.34.99Z" fill="#fff"/><path d="M109.89 120.73c8.07-13.48 16.08-34.28 14.97-62.77-2.51-7.36-5.74-13.55-9.5-18.06.67 6.32 1.66 20.24-.28 36.09-2.42 19.74-10.01 46.58-32.43 62.63-.59-.18-1.96-.62-3.91-1.4 1.88 4.29 4.13 7.79 6.51 10.85 3.32-2.33 14.87-11.01 24.64-27.33Z" fill="#ffdc8d"/><path d="M116.01 65.09c-.17 3.47-.47 7.13-.93 10.9-1.85 15.14-6.76 34.45-19.05 49.87 13.08-8.27 22.05-25.24 22.05-44.85 0-5.56-.73-10.91-2.07-15.91ZM29.29 91.51c3.24 6.33 6.82 11.85 10.55 16.68C46.25 96.8 54.01 78.52 64.4 63.17c12.19-17.99 25.4-29.75 31.4-39-4.88-6.16-6.32-12.2-6.32-12.2-1.29-.22-2.54-.42-3.78-.61-5.96 9.21-12.83 28.91-25.17 47.14C49.89 74.23 37.1 83.27 29.29 91.52Z" fill="#fff"/><path d="M75.36 129.55c-.72 2.11-1.36 4.2-1.95 6.28 5.43 2.61 8.94 3.56 8.94 3.56 19.03-13.47 27.76-34.44 31.53-53.97-12.34-2.23-29.23 16.9-38.52 44.14Z" fill="#ffdc8d"/><path d="M116.3 36.07a.69.69 0 0 0-.55-.58C95.4 31.02 90.64 12.01 90.6 11.82a.705.705 0 0 0-.57-.54C60.99 6.33 42.89 8.4 42.72 8.43c-.33.04-.58.3-.62.63-2.41 21.63-26.64 26.39-26.89 26.43-.36.06-.61.38-.58.75 3.16 45.09 21.44 70.92 36.22 84.65 16.05 14.89 31.58 19.16 31.74 19.21.06.01.12.02.19.02h-.01c.15 0 .29-.04.41-.12 23.07-16.33 30.84-43.73 33.3-63.85 2.66-21.74-.15-39.89-.18-40.06Zm-1.22 39.91c-2.42 19.74-10.01 46.58-32.43 62.63-2.27-.68-16.3-5.3-30.82-18.79-14.53-13.49-32.48-38.85-35.73-83.1 3.9-.91 24.72-6.75 27.35-26.96 3.22-.3 20.16-1.52 45.9 2.82.88 3 6.58 19.72 25.62 24.16.41 2.99 2.5 19.63.1 39.23Z"/><path d="M114.96 36.75c-19.04-4.44-24.75-21.16-25.62-24.16-25.72-4.33-42.66-3.12-45.89-2.83-.07.59-.18 1.26-.27 1.78 18.74-1.23 39.85 2.17 40.06 2.2.29.05.52.27.59.56 4.13 19.25 24.95 24.32 25.16 24.37.28.06.51.31.54.6 4.82 36.23-4.23 60.99-12.67 75.38-7.78 13.25-16.27 20.25-18.93 22.24 2.37.99 4.05 1.52 4.71 1.72 22.42-16.05 30.01-42.89 32.43-62.63 2.4-19.6.31-36.24-.1-39.23Z" fill="#845629"/><path d="M116.3 36.07a.703.703 0 0 0-.55-.58C95.4 31.02 90.64 12.01 90.6 11.82a.705.705 0 0 0-.57-.54C60.99 6.33 42.89 8.4 42.72 8.43c-.34.04-.6.31-.63.65-.09 1.1-.47 3.12-.47 3.14-.04.21.02.44.17.6.15.16.36.26.59.23 17.24-1.27 36.88 1.55 40.16 2.05 4.18 18.08 22.43 23.95 25.64 24.85 4.62 35.54-4.24 59.8-12.51 73.93-9 15.36-19.26 22.37-19.36 22.44-.18.11-.29.31-.31.52-.02.21.06.42.21.57l.44.44c.06.06.14.11.23.15 3.5 1.49 5.63 2.06 5.72 2.09.06.01.12.02.19.02.15 0 .29-.04.41-.12 23.07-16.33 30.84-43.73 33.3-63.85 2.66-21.74-.15-39.89-.18-40.06ZM77.92 136.9c2.66-1.99 11.15-8.99 18.93-22.24 8.44-14.39 17.49-39.15 12.67-75.38a.728.728 0 0 0-.54-.6c-.21-.05-21.03-5.13-25.16-24.37a.726.726 0 0 0-.59-.56c-.21-.03-21.33-3.43-40.06-2.2.09-.52.2-1.19.27-1.78 3.23-.29 20.18-1.5 45.89 2.83.88 3 6.58 19.72 25.62 24.16.41 2.99 2.5 19.63.1 39.23-2.42 19.74-10.01 46.58-32.43 62.63-.66-.2-2.34-.73-4.71-1.72Z"/><path d="M120.94 29.26a.736.736 0 0 0-.67-.56c-.79-.04-19.51-1-25.02-23.66a.709.709 0 0 0-.51-.52c-.29-.08-29.75-7.82-58.83-2.86-.33.06-.58.33-.59.66-.05.99-1.58 24.29-27.77 23.91-.38.01-.7.29-.72.68-.01.23-1.17 23.66 7.67 50.25 5.2 15.64 12.79 29.3 22.55 40.62 12.21 14.15 27.88 24.64 46.56 31.18.08.03.16.04.24.04.13 0 .26-.03.38-.1.14-.08 14.2-9.03 25.66-28.17 10.56-17.65 21.06-47.84 11.06-91.47ZM15.87 76.76c-7.94-23.83-7.76-45.08-7.64-49.1 24.59-.04 28.04-20.94 28.46-24.69 26.74-4.41 53.67 1.92 57.28 2.82 5.35 21.15 22.4 23.94 25.7 24.28 9.69 42.85-.6 72.5-10.97 89.84-10.39 17.38-22.92 26.23-24.95 27.59-41.5-14.66-59.82-46.54-67.88-70.74Z"/><path d="M56.78 89.13c-5.15-4.49-8.5-10.91-9.42-18.07-1.59-12.36 4.54-23.75 14.27-28.17-11.84 2.58-19.81 15.06-18.04 28.82 1.85 14.33 13.57 24.66 26.27 23.22-4.7-.46-9.22-2.44-13.08-5.8Z" fill="#845629"/><path d="M67.47 95.79c-5.45 0-10.76-2.05-15.18-5.91-5.15-4.49-8.5-10.91-9.42-18.07C40.96 57 50.14 43.56 63.33 41.88c13.19-1.69 25.47 8.99 27.39 23.8.92 7.16-.69 14.22-4.53 19.86-3.87 5.67-9.52 9.25-15.93 10.07-.93.12-1.86.18-2.78.18Zm-1.38-52.67c-.85 0-1.71.06-2.57.16-12.41 1.59-21.03 14.3-19.23 28.35.88 6.82 4.05 12.92 8.94 17.18 4.87 4.24 10.85 6.16 16.84 5.39 6-.77 11.3-4.13 14.93-9.46 3.65-5.36 5.17-12.07 4.3-18.89-1.68-13.06-11.82-22.74-23.22-22.74Z"/><path d="M91.53 70.67c-.15-1.14-.36-2.25-.63-3.33.49 6.58-1.15 12.99-4.7 18.19-3.87 5.67-9.52 9.25-15.93 10.07-.93.12-1.86.18-2.78.18-5.45 0-10.76-2.05-15.18-5.91-2.24-1.95-4.14-4.28-5.65-6.86 4.02 10.98 14.19 18.18 25.03 16.8 12.82-1.64 21.7-14.69 19.84-29.14Z"/><path d="M74.96 94.15c12.82-1.64 21.7-14.69 19.84-29.14-1.86-14.45-13.76-24.84-26.58-23.19-12.82 1.64-21.7 14.69-19.84 29.14 1.86 14.45 13.76 24.84 26.58 23.19Z" fill="#fff"/><path d="M94.8 65.01c-1.73-13.45-12.16-23.36-23.92-23.36-3.39 4.7-6.62 9.88-9.59 15.45-4.28 8.04-7.55 16.09-9.82 23.72 4.72 8.99 13.85 14.56 23.49 13.33 12.82-1.64 21.7-14.69 19.84-29.14Z" fill="#ffdc8d"/><path d="M76.6 83.53c-1.78 3.7-3.16 7.36-4.15 10.79.83 0 1.67-.06 2.51-.17 12.82-1.64 21.7-14.69 19.84-29.14-.1-.81-.25-1.61-.41-2.39-5.32 1.67-12.47 9.83-17.79 20.92Z" fill="#e0b958"/><path d="M62.9 43.23c-9.73 4-15.94 15.08-14.58 27.24 2.89-4.18 5.66-8.71 8.22-13.53 2.44-4.6 4.56-9.2 6.35-13.72Z" fill="#ffdc8d"/><path d="M72.26 95.04c-5.45 0-10.76-2.05-15.18-5.91-5.15-4.49-8.5-10.91-9.42-18.07-1.91-14.81 7.27-28.25 20.46-29.93 13.19-1.69 25.47 8.99 27.39 23.8.92 7.16-.69 14.22-4.53 19.86-3.87 5.67-9.52 9.25-15.93 10.07-.93.12-1.86.18-2.78.18Zm-1.38-52.67c-.85 0-1.71.06-2.57.16-12.41 1.59-21.03 14.3-19.23 28.34.88 6.82 4.05 12.92 8.94 17.18 4.87 4.24 10.85 6.16 16.84 5.39 6-.77 11.3-4.13 14.93-9.46 3.65-5.36 5.17-12.07 4.3-18.89-1.68-13.06-11.82-22.74-23.22-22.74ZM2.83 37.91l3.21-1a.7.7 0 0 0 .49-.71c-.11-2.06-.15-4.53-.15-5.94 0-.52-.56-.85-1.03-.61L2.2 31.29c-.23.12-.38.36-.38.62 0 1.75.06 4.09.09 5.36.01.46.47.78.91.65Zm.22 3.51 3.29-.91c.33-.09.54-.4.51-.73v-.03a.709.709 0 0 0-.89-.63l-3.29.91c-.33.09-.54.4-.51.73v.03c.04.44.46.75.89.63Zm104.03 62.06-3.55.36a.718.718 0 0 0-.75.43c-.77 1.91-1.58 3.34-2.18 4.62-.22.48.14 1.01.67.99l3.55-.15a.7.7 0 0 0 .61-.39c.74-1.59 1.69-3.72 2.21-4.89a.69.69 0 0 0-.55-.97Zm.99-3.2-3.37.32a.702.702 0 0 0-.78.44v.03c-.17.41.09.87.53.94l3.37-.32c.34.06.66-.13.78-.44v-.03a.687.687 0 0 0-.53-.94Zm6.81-49.24-3.12.61c-.31.06-.53.33-.53.64v.03c0 .41.37.72.78.64l3.12-.61c.31-.06.53-.33.53-.64v-.03a.65.65 0 0 0-.78-.64ZM6.07 41.67l-3.29.91c-.33.09-.54.4-.51.73v.03c.04.44.46.75.89.63l3.29-.91c.33-.09.54-.4.51-.73v-.03a.709.709 0 0 0-.89-.63Zm58.65 99.48c-13.56-6.76-22.3-16.36-23.34-17.5a.544.544 0 0 0-.26-.16l-2.93-.81c-.54-.15-.95.53-.55.92 11.83 11.74 24.98 18.04 26.23 18.54.06.02.13.04.19.05h.41c.59.01.79-.78.26-1.05ZM90.2 12.63l-.49-1.34-6.83 2.49.49 1.34 6.83-2.49zm24.99 23.15-6.59 3.08.61 1.28 6.58-3.07-.6-1.29zM88.38 14.11l-3.08 1.05c-.39.14-.54.56-.42.95.67 2.14 1.93 5.29 4.11 8.61.18.27.53.38.83.26l3.27-1.22c.44-.16.6-.7.32-1.07-2.57-3.42-3.72-6.72-4.13-8.13a.709.709 0 0 0-.91-.46Zm16.95 22.79c.85.38 2.01.83 3.01 1.01.13.02.26 0 .39-.05s1.58-.72 1.58-.72c.53-.24.51-1-.04-1.2-.82-.31-1.8-.68-2.45-.95-.35-.14-.75-.14-1.09.04l-1.42.69c-.5.24-.49.96.02 1.18Zm-66.25 84.04-3.72-4c-.21-.23-.51-.36-.82-.36h-2.19a.71.71 0 0 0-.54 1.17l2.53 2.92c.21.24.5.4.81.46s3.52.55 3.52.55c.41.06.68-.43.39-.73Zm51.88-93.79.37.43c.17.2.46.26.7.16l3.51-1.42c.28-.11.36-.47.15-.69l-.56-.61a.811.811 0 0 0-.91-.19l-3.06 1.36c-.37.16-.48.64-.21.95Zm20.91 23.55 3.09-.63c.31-.06.55-.33.54-.63-.09-2.56-.42-7.43-.78-9.82a.683.683 0 0 0-.83-.56l-3.18 1.41c-.38.09-.54.46-.49.84.36 2.84.65 5.95.83 8.69.03.44.37.8.81.7Zm-8.26 60.98-3.95.27c-.41.03-.79.26-.98.63-1.61 2.91-9.19 16.15-18.53 23.2-.21.16-.15.48.1.56h-.01l2.74.81c.31.09.65.03.91-.17 2.28-1.72 12.99-10.59 20.17-24.62.16-.32-.09-.71-.45-.68Z"/></svg>