<?xml version="1.0" encoding="UTF-8" standalone="no"?><svg width="42" height="28" viewBox="0 0 42 28" fill="none" xmlns="http://www.w3.org/2000/svg">
<g clip-path="url(#clip0_22026_321)">
<path d="M36 0H6C2.68629 0 0 2.68629 0 6V22C0 25.3137 2.68629 28 6 28H36C39.3137 28 42 25.3137 42 22V6C42 2.68629 39.3137 0 36 0Z" fill="#006FCE"/>
<path fill-rule="evenodd" clip-rule="evenodd" d="M7.52497 9.77502L3.59497 18.225H8.29497L8.87497 16.875H10.205L10.785 18.225H15.965V17.195L16.425 18.225H19.105L19.565 17.175V18.225H30.335L31.645 16.915L32.875 18.225H38.405L34.465 14.025L38.405 9.77502H32.955L31.685 11.065L30.495 9.77502H18.775L17.765 11.955L16.735 9.77502H12.045V10.765L11.525 9.77502H7.51497H7.52497ZM23.605 10.975H29.785L31.675 12.965L33.625 10.975H35.515L32.645 14.025L35.515 17.035H33.535L31.645 15.025L29.685 17.035H23.595V10.975H23.605ZM25.135 13.335V12.225H28.995L30.675 13.995L28.915 15.775H25.135V14.565H28.505V13.335H25.135ZM8.43497 10.975H10.725L13.335 16.705V10.975H15.845L17.855 15.085L19.715 10.975H22.215V17.045H20.695V12.295L18.465 17.045H17.105L14.875 12.295V17.045H11.745L11.155 15.685H7.95497L7.36497 17.045H5.68497L8.44497 10.975H8.43497ZM8.49497 14.425L9.55497 12.005L10.605 14.425H8.49497Z" fill="white"/>
</g>
<defs>
<clipPath id="clip0_22026_321">
<rect width="42" height="28" fill="white"/>
</clipPath>
</defs>
</svg>
