<?xml version="1.0" encoding="UTF-8" standalone="no"?><svg width="42" height="28" viewBox="0 0 42 28" fill="none" xmlns="http://www.w3.org/2000/svg">
<g clip-path="url(#clip0_20507_11392)">
<path d="M0 6C0 2.69 2.69 0 6 0H36C39.31 0 42 2.69 42 6V22C42 25.31 39.31 28 36 28H6C2.69 28 0 25.31 0 22V6Z" fill="#1D1D22"/>
<path d="M0 6C0 2.69 2.69 0 6 0H36C39.31 0 42 2.69 42 6V22C42 25.31 39.31 28 36 28H6C2.69 28 0 25.31 0 22V6Z" fill="url(#paint0_linear_20507_11392)"/>
<path d="M6.00004 1.17004H36C38.67 1.17004 40.83 3.33004 40.83 6.00004V22C40.83 24.67 38.67 26.83 36 26.83H6.00004C3.33004 26.83 1.17004 24.67 1.17004 22V6.00004C1.17004 3.33004 3.33004 1.17004 6.00004 1.17004Z" stroke="url(#paint1_linear_20507_11392)" stroke-width="2.34"/>
<path fill-rule="evenodd" clip-rule="evenodd" d="M29 14C29 18.42 25.4105 22 20.9787 22C10.3404 21.58 10.3404 6.42 20.9787 6C25.4105 6 29 9.58 29 14ZM22.9038 11.03C24.0168 11.41 24.8389 11.98 24.6785 13.05C24.5582 13.83 24.1271 14.21 23.5455 14.34C24.3376 14.75 24.6083 15.53 24.3577 16.47C23.8764 17.82 22.7434 17.94 21.2394 17.66L20.8684 19.12L19.9861 18.9L20.347 17.46C20.1164 17.4 19.8858 17.34 19.6452 17.28L19.2842 18.72L18.4018 18.5L18.7628 17.04L16.9781 16.59L17.4192 15.58C17.4192 15.58 18.071 15.75 18.0609 15.74C18.3116 15.8 18.4219 15.64 18.462 15.53L19.4546 11.58C19.4647 11.39 19.4045 11.16 19.0436 11.07C19.0536 11.07 18.4018 10.91 18.4018 10.91L18.6325 9.97L20.4172 10.41L20.7782 8.97L21.6605 9.19L21.3096 10.6C21.5502 10.65 21.7909 10.71 22.0215 10.77L22.3724 9.36L23.2547 9.58L22.8938 11.02H22.9038V11.03ZM20.7882 13.43C21.3898 13.59 22.7033 13.94 22.9239 13.03C23.1545 12.1 21.8811 11.82 21.2594 11.68C21.1893 11.66 21.1291 11.65 21.079 11.64L20.6378 13.39C20.6378 13.39 20.728 13.41 20.7882 13.43ZM20.1064 16.26C20.8283 16.45 22.4025 16.86 22.6531 15.86C22.9038 14.74 21.2093 14.47 20.4172 14.28L19.9359 16.21C19.9359 16.21 20.0462 16.24 20.1064 16.25V16.26Z" fill="#F7931A"/>
</g>
<defs>
<linearGradient id="paint0_linear_20507_11392" x1="15.66" y1="-2.77" x2="25.04" y2="26.71" gradientUnits="userSpaceOnUse">
<stop stop-color="#797583" stop-opacity="0.2"/>
<stop offset="1" stop-color="#363567" stop-opacity="0.2"/>
</linearGradient>
<linearGradient id="paint1_linear_20507_11392" x1="17.43" y1="-6.57996" x2="23.36" y2="27.57" gradientUnits="userSpaceOnUse">
<stop stop-opacity="0.2"/>
<stop offset="1" stop-color="white" stop-opacity="0"/>
</linearGradient>
<clipPath id="clip0_20507_11392">
<rect width="42" height="28" fill="white"/>
</clipPath>
</defs>
</svg>
