<?xml version="1.0" encoding="UTF-8" standalone="no"?><svg width="42" height="28" viewBox="0 0 42 28" fill="none" xmlns="http://www.w3.org/2000/svg">
<g clip-path="url(#clip0_20507_11393)">
<path d="M0 6C0 2.69 2.69 0 6 0H36C39.31 0 42 2.69 42 6V22C42 25.31 39.31 28 36 28H6C2.69 28 0 25.31 0 22V6Z" fill="#1D1D22"/>
<path d="M0 6C0 2.69 2.69 0 6 0H36C39.31 0 42 2.69 42 6V22C42 25.31 39.31 28 36 28H6C2.69 28 0 25.31 0 22V6Z" fill="url(#paint0_linear_20507_11393)"/>
<path d="M5.99992 1.17004H35.9999C38.6699 1.17004 40.8299 3.33004 40.8299 6.00004V22C40.8299 24.67 38.6699 26.83 35.9999 26.83H5.99992C3.32992 26.83 1.16992 24.67 1.16992 22V6.00004C1.16992 3.33004 3.32992 1.17004 5.99992 1.17004Z" stroke="url(#paint1_linear_20507_11393)" stroke-width="2.34"/>
<path d="M16 25.71L39.7 19V20.71C39.7 23.47 37.46 25.71 34.7 25.71H16Z" fill="#FD6020"/>
<path fill-rule="evenodd" clip-rule="evenodd" d="M35.92 10.13C37.22 10.13 37.94 10.69 37.94 11.76C38.01 12.57 37.42 13.26 36.64 13.39L38.4 15.71H37.03L35.53 13.45H35.4V15.71H34.29V10.13H35.92ZM35.4 12.7C36.14 12.76 36.8 12.56 36.77 11.82C36.81 11.16 36.12 10.94 35.4 11.01V12.7ZM30.45 15.71H33.58V14.77H31.56V13.27H33.52V12.33H31.56V11.08H33.58V10.14H30.45V15.72V15.71ZM27.19 13.89L25.69 10.13H24.52L26.93 15.83H27.52L29.93 10.13H28.76L27.2 13.89H27.19ZM13.95 12.95C13.9 15.11 16.42 16.49 18.32 15.52V14.27C17.3 15.58 14.96 14.65 15.13 13.02C15.06 12.02 15.91 11.14 16.96 11.08C17.48 11.08 18 11.33 18.33 11.71V10.46C17.94 10.21 17.42 10.15 16.96 10.15C15.26 10.02 13.96 11.34 13.96 12.97V12.95H13.95ZM11.93 12.26C11.28 12.01 11.08 11.88 11.08 11.57C11.15 11.19 11.47 10.88 11.86 10.94C12.19 10.94 12.51 11.13 12.77 11.38L13.36 10.63C12.9 10.25 12.32 9.99998 11.73 9.99998C10.82 9.93998 10.04 10.63 9.97 11.5C9.95 12.29 10.27 12.75 11.34 13.07C11.6 13.13 11.86 13.26 12.12 13.38C12.78 13.75 12.32 14.79 11.66 14.76C11.12 14.78 10.62 14.47 10.42 14.01L9.7 14.7C10.09 15.39 10.87 15.77 11.66 15.77C12.7 15.83 13.55 15.08 13.62 14.08V13.89C13.55 13.14 13.23 12.76 11.93 12.26ZM8.15 15.71H9.26V10.13H8.15V15.71ZM3 10.13H4.96C6.52 10.19 7.76 11.45 7.7 12.95C7.7 13.76 7.31 14.52 6.66 15.08C6.07 15.52 5.36 15.77 4.64 15.71H3.01V10.13H3ZM4.43 14.77C4.95 14.83 5.54 14.64 5.93 14.33C6.7 13.61 6.73 12.26 5.93 11.51C5.54 11.2 4.95 11.01 4.43 11.07H4.1V14.77H4.43Z" fill="white"/>
<path fill-rule="evenodd" clip-rule="evenodd" d="M21.6499 9.99999C20.0199 9.99999 18.6499 11.25 18.6499 12.88C18.7599 16.65 24.5199 16.87 24.7099 12.94C24.6399 11.31 23.3399 9.98999 21.6499 9.98999V9.99999Z" fill="#FD6020"/>
</g>
<defs>
<linearGradient id="paint0_linear_20507_11393" x1="15.66" y1="-2.77" x2="25.04" y2="26.71" gradientUnits="userSpaceOnUse">
<stop stop-color="#797583" stop-opacity="0.2"/>
<stop offset="1" stop-color="#363567" stop-opacity="0.2"/>
</linearGradient>
<linearGradient id="paint1_linear_20507_11393" x1="17.4299" y1="-6.57996" x2="23.3599" y2="27.57" gradientUnits="userSpaceOnUse">
<stop stop-opacity="0.2"/>
<stop offset="1" stop-color="white" stop-opacity="0"/>
</linearGradient>
<clipPath id="clip0_20507_11393">
<rect width="42" height="28" fill="white"/>
</clipPath>
</defs>
</svg>
