<?xml version="1.0" encoding="UTF-8" standalone="no"?><svg width="42" height="28" viewBox="0 0 42 28" fill="none" xmlns="http://www.w3.org/2000/svg">
<g clip-path="url(#clip0_20507_11394)">
<path d="M0 6C0 2.69 2.69 0 6 0H36C39.31 0 42 2.69 42 6V22C42 25.31 39.31 28 36 28H6C2.69 28 0 25.31 0 22V6Z" fill="#1D1D22"/>
<path d="M0 6C0 2.69 2.69 0 6 0H36C39.31 0 42 2.69 42 6V22C42 25.31 39.31 28 36 28H6C2.69 28 0 25.31 0 22V6Z" fill="url(#paint0_linear_20507_11394)"/>
<path d="M5.99992 1.17004H35.9999C38.6699 1.17004 40.8299 3.33004 40.8299 6.00004V22C40.8299 24.67 38.6699 26.83 35.9999 26.83H5.99992C3.32992 26.83 1.16992 24.67 1.16992 22V6.00004C1.16992 3.33004 3.32992 1.17004 5.99992 1.17004Z" stroke="url(#paint1_linear_20507_11394)" stroke-width="2.34"/>
<path fill-rule="evenodd" clip-rule="evenodd" d="M19.84 17.39V13.87C21.01 13.85 22.79 14.09 23.65 13.13L23.78 13.01C24.74 11.99 24.68 10.4 23.65 9.45998C23.14 8.95998 22.43 8.68998 21.71 8.69998H18.71V17.39H19.84ZM19.84 12.8V9.75998C20.61 9.81998 22.25 9.51997 22.82 10.19C23.82 11.09 23.08 12.88 21.74 12.8H19.84ZM29.06 11.9C27.96 10.87 25.45 11.05 24.66 12.4L25.66 13.02C26.49 11.65 28.91 12.17 28.71 13.89C27.29 13.13 24.4 13.5 24.45 15.55C24.44 16.11 24.68 16.65 25.12 17.01C26.11 17.89 27.9 17.81 28.66 16.57H28.71V17.39H29.79V13.72C29.79 12.95 29.55 12.34 29.07 11.9H29.06ZM25.98 16.29C25.45 15.91 25.5 15.11 26.06 14.75C26.72 14.25 28.13 14.35 28.69 14.83C28.69 15.3 28.5 15.71 28.13 16.06C27.79 16.39 27.33 16.58 26.86 16.58C26.54 16.58 26.23 16.48 25.98 16.29ZM32.22 20L36 11.44H34.77L33.02 15.71H33L31.21 11.44H29.98L32.46 17.01L31.05 20H32.22Z" fill="white"/>
<path d="M15.9301 13.1C15.9301 12.76 15.9001 12.42 15.8501 12.09H11.0701V14.01H13.8101C13.7001 14.63 13.3301 15.18 12.8001 15.53V16.78H14.4301C15.3901 15.91 15.9401 14.63 15.9401 13.11L15.9301 13.1Z" fill="#4285F4"/>
<path d="M11.07 17.9799C12.43 17.9799 13.59 17.5399 14.43 16.7699L12.8 15.5199C11.27 16.5899 8.75005 15.7699 8.23005 13.9399H6.55005V15.2299C7.41005 16.9099 9.16005 17.9799 11.07 17.9799Z" fill="#34A853"/>
<path d="M8.22 13.95C8.01 13.33 8.01 12.66 8.22 12.04V10.76H6.54C5.82 12.17 5.82 13.83 6.54 15.24L8.22 13.96V13.95Z" fill="#FBBC04"/>
<path d="M11.07 9.97995C11.79 9.96995 12.49 10.2399 13.01 10.7299L14.46 9.29995C12.14 7.05995 7.93005 7.86995 6.55005 10.76L8.23005 12.05C8.63005 10.86 9.75005 9.97995 11.07 9.97995Z" fill="#EA4335"/>
</g>
<defs>
<linearGradient id="paint0_linear_20507_11394" x1="15.66" y1="-2.77" x2="25.04" y2="26.71" gradientUnits="userSpaceOnUse">
<stop stop-color="#797583" stop-opacity="0.2"/>
<stop offset="1" stop-color="#363567" stop-opacity="0.2"/>
</linearGradient>
<linearGradient id="paint1_linear_20507_11394" x1="17.4299" y1="-6.57996" x2="23.3599" y2="27.57" gradientUnits="userSpaceOnUse">
<stop stop-opacity="0.2"/>
<stop offset="1" stop-color="white" stop-opacity="0"/>
</linearGradient>
<clipPath id="clip0_20507_11394">
<rect width="42" height="28" fill="white"/>
</clipPath>
</defs>
</svg>
