<?xml version="1.0" encoding="UTF-8" standalone="no"?><svg width="42" height="28" viewBox="0 0 42 28" fill="none" xmlns="http://www.w3.org/2000/svg">
<g clip-path="url(#clip0_20507_11395)">
<path d="M0 6C0 2.69 2.69 0 6 0H36C39.31 0 42 2.69 42 6V22C42 25.31 39.31 28 36 28H6C2.69 28 0 25.31 0 22V6Z" fill="#1D1D22"/>
<path d="M0 6C0 2.69 2.69 0 6 0H36C39.31 0 42 2.69 42 6V22C42 25.31 39.31 28 36 28H6C2.69 28 0 25.31 0 22V6Z" fill="url(#paint0_linear_20507_11395)"/>
<path d="M6.00004 1.17004H36C38.67 1.17004 40.83 3.33004 40.83 6.00004V22C40.83 24.67 38.67 26.83 36 26.83H6.00004C3.33004 26.83 1.17004 24.67 1.17004 22V6.00004C1.17004 3.33004 3.33004 1.17004 6.00004 1.17004Z" stroke="url(#paint1_linear_20507_11395)" stroke-width="2.34"/>
<path d="M23.38 14.05C23.38 18.5 19.71 22.1 15.19 22.1C4.33004 21.67 4.33004 6.41999 15.19 5.98999C19.71 5.98999 23.38 9.59999 23.38 14.04V14.05Z" fill="#ED0006"/>
<path d="M34 14.05C34 18.5 30.33 22.1 25.81 22.1C14.95 21.67 14.95 6.41999 25.81 5.98999C30.33 5.98999 34 9.59999 34 14.04V14.05Z" fill="#F9A000"/>
<path fill-rule="evenodd" clip-rule="evenodd" d="M20.5 20.18C16.72 17.24 16.72 10.86 20.5 7.92004C24.28 10.86 24.28 17.24 20.5 20.18Z" fill="#FF5E00"/>
</g>
<defs>
<linearGradient id="paint0_linear_20507_11395" x1="15.66" y1="-2.77" x2="25.04" y2="26.71" gradientUnits="userSpaceOnUse">
<stop stop-color="#797583" stop-opacity="0.2"/>
<stop offset="1" stop-color="#363567" stop-opacity="0.2"/>
</linearGradient>
<linearGradient id="paint1_linear_20507_11395" x1="17.43" y1="-6.57996" x2="23.36" y2="27.57" gradientUnits="userSpaceOnUse">
<stop stop-opacity="0.2"/>
<stop offset="1" stop-color="white" stop-opacity="0"/>
</linearGradient>
<clipPath id="clip0_20507_11395">
<rect width="42" height="28" fill="white"/>
</clipPath>
</defs>
</svg>
