<?xml version="1.0" encoding="UTF-8" standalone="no"?><svg width="42" height="28" viewBox="0 0 42 28" fill="none" xmlns="http://www.w3.org/2000/svg">
<g clip-path="url(#clip0_22026_295)">
<path d="M36 0H6C2.68629 0 0 2.68629 0 6V22C0 25.3137 2.68629 28 6 28H36C39.3137 28 42 25.3137 42 22V6C42 2.68629 39.3137 0 36 0Z" fill="#1434CB"/>
<path d="M25.4357 9.25171C23.3546 9.25171 21.4948 10.3304 21.4948 12.3234C21.4948 14.6089 24.7932 14.7668 24.7932 15.915C24.7932 16.3984 24.2392 16.8312 23.2929 16.8312C21.9499 16.8312 20.9462 16.2265 20.9462 16.2265L20.5167 18.2376C20.5167 18.2376 21.673 18.7484 23.2081 18.7484C25.4835 18.7484 27.2739 17.6167 27.2739 15.5897C27.2739 13.1746 23.9617 13.0214 23.9617 11.9557C23.9617 11.577 24.4165 11.162 25.3601 11.162C26.4247 11.162 27.2934 11.6018 27.2934 11.6018L27.7137 9.65943C27.7137 9.65943 26.7686 9.25171 25.4357 9.25171ZM6.39536 9.39831L6.34497 9.6915C6.34497 9.6915 7.22051 9.85173 8.00907 10.1714C9.02441 10.5379 9.09674 10.7513 9.26773 11.414L11.1311 18.5972H13.629L17.4771 9.39831H14.985L12.5123 15.6527L11.5033 10.3512C11.4108 9.74443 10.9421 9.39831 10.3684 9.39831H6.39536ZM18.4793 9.39831L16.5243 18.5972H18.9007L20.8488 9.39831H18.4793ZM31.7336 9.39831C31.1606 9.39831 30.8569 9.70511 30.6341 10.2412L27.1525 18.5972H29.6446L30.1268 17.2046H33.1629L33.4561 18.5972H35.6551L33.7367 9.39831H31.7336ZM32.0577 11.8836L32.7964 15.3355H30.8174L32.0577 11.8836Z" fill="white"/>
</g>
<defs>
<clipPath id="clip0_22026_295">
<rect width="42" height="28" fill="white"/>
</clipPath>
</defs>
</svg>
